# xmcd
#
# Track frame offsets:
#	150
#	12334
#	25002
#	40621
#	57607
#	75218
#	93212
#	115406
#	125526
#	141600
#	156956
#	175320
#	193858
#	211912
#	227924
#	240566
#	255888
#	272476
#	289591
#	304942
#
# Disc length: 4249 seconds
#
# Revision: 1
# Processed by: cddbd v1.5.2PL0 Copyright (c) Steve Scherf et al.
# Submitted via: audiograbber 1.83.01
#
DISCID=10109714
DTITLE=Various Artist - Country Music Meeting 2013
DYEAR=2013
DGENRE=Country
TTITLE0=Thompson Brothers - All Night Long
TTITLE1=Nashfield - Kick It Like Country
TTITLE2=PeTE Band - Feel Like A Man
TTITLE3=Meg Pfeiffer - Poker Face
TTITLE4=Cody Jinks - We Get By
TTITLE5=Lisa-Marie Fischer - Cowboy
TTITLE6=The Twang - I Kissed A Girl
TTITLE7=The Lennerockers - Skifflebilly Bop
TTITLE8=Scooter Lee - Put The Western Back In Country
TTITLE9=The Country Cousins - Take Me In Your Arms
TTITLE10=The Internationally Line - Eventually
TTITLE11=Sherman Noir - When The Sun Goes Down
TTITLE12=Larry Schuba - Johnny ist gegangen
TTITLE13=Mark Bloomsteel - What's That Cowgirl See In Me
TTITLE14=C.C. Adams - Lines
TTITLE15=Jim Pyle - All Comes Down To Love
TTITLE16=Taneytown - Junction 17
TTITLE17=Jolanda Hunter - Johnny
TTITLE18=Bluegrass Breakdown - Fascination Expired
TTITLE19=Rodejo - Hillbilly Girl
EXTD=
EXTT0=
EXTT1=
EXTT2=
EXTT3=
EXTT4=
EXTT5=
EXTT6=
EXTT7=
EXTT8=
EXTT9=
EXTT10=
EXTT11=
EXTT12=
EXTT13=
EXTT14=
EXTT15=
EXTT16=
EXTT17=
EXTT18=
EXTT19=
PLAYORDER=
